# xmcd
#
# Track frame offsets: 
#        150
#        20674
#        32822
#        46065
#        56020
#        68222
#        81224
#        96969
#        108871
#        122499
#        136111
#        151244
#        162641
#        174467
#        185182
#
# Disc length: 2642 seconds
#
# Revision: 0
# Processed by: cddbd v1.5.2PL0 Copyright (c) Steve Scherf et al.
# Submitted via: ExactAudioCopy v0.95b4
#
DISCID=c70a500f
DTITLE=Dale Watson - The Little Darlin' Sessions, Vol. 1
DYEAR=2007
DGENRE=Country
TTITLE0=Touch My Heart
TTITLE1=Down On The Corner (At A Bar Called Kelly's)
TTITLE2=Jukebox Charlie
TTITLE3=Big Town Baby
TTITLE4=Lovin' Machine
TTITLE5=If I'm Gonna Sink
TTITLE6=I Don't Need A Bottle
TTITLE7=Apartment #9
TTITLE8=I Never Had The One I Wanted
TTITLE9=Everything You Touch Turns To Hurt
TTITLE10=The Pint Of No Return
TTITLE11=He Thought He'd Die Laughing
TTITLE12=Memory Crossing
TTITLE13=Late And Great Me
TTITLE14=Whatever You Are
EXTD=
EXTT0=
EXTT1=
EXTT2=
EXTT3=
EXTT4=
EXTT5=
EXTT6=
EXTT7=
EXTT8=
EXTT9=
EXTT10=
EXTT11=
EXTT12=
EXTT13=
EXTT14=
PLAYORDER=
